<?xml version="1.0" standalone="no"?>
<!DOCTYPE svg PUBLIC "-//W3C//DTD SVG 20010904//EN"
 "http://www.w3.org/TR/2001/REC-SVG-20010904/DTD/svg10.dtd">
<svg version="1.0" xmlns="http://www.w3.org/2000/svg"
 width="768.000000pt" height="683.000000pt" viewBox="0 0 768.000000 683.000000"
 preserveAspectRatio="xMidYMid meet">

<g transform="translate(0.000000,683.000000) scale(0.100000,-0.100000)"
fill="#000000" stroke="none">
<path d="M245 6821 c-90 -22 -172 -90 -215 -176 -24 -48 -25 -58 -25 -240 0
-188 0 -191 28 -247 30 -62 83 -115 149 -150 l43 -23 512 -3 513 -3 5 -22 c3
-12 212 -1034 465 -2272 253 -1237 462 -2259 464 -2270 4 -16 -6 -27 -42 -50
-63 -40 -158 -136 -207 -210 -54 -81 -101 -212 -115 -318 -28 -211 44 -433
192 -592 212 -227 510 -301 801 -200 105 36 174 82 272 180 130 130 190 250
215 436 20 142 -16 323 -88 449 -14 25 -47 73 -74 108 l-50 62 1391 0 1391 0
-48 -62 c-64 -82 -94 -137 -126 -225 -91 -258 -31 -548 156 -748 212 -227 510
-301 801 -200 105 36 174 82 272 180 70 69 101 109 133 172 111 214 115 462
12 678 -60 125 -175 249 -292 314 -26 14 -48 31 -48 38 0 7 16 81 36 165 46
193 49 270 13 348 -34 73 -76 120 -141 156 l-53 29 -1837 3 -1838 2 -5 23 c-3
12 -21 99 -40 192 -19 94 -37 180 -40 192 l-5 23 1992 2 1993 3 55 26 c70 33
127 89 156 153 13 30 157 644 344 1466 355 1560 339 1475 285 1585 -31 65
-108 136 -173 162 -45 17 -150 18 -2699 21 l-2652 2 -10 53 c-99 488 -123 593
-145 631 -34 58 -93 111 -151 138 l-50 23 -745 2 c-410 0 -758 -2 -775 -6z"/>
</g>
</svg>
